 http://desibbrg.org/images/66952052392581364616.gif 
http://desibbrg.org/images/89663062412115040212.jpg 
http://desibbrg.org/images/02420880099216328352.jpg 
http://desibbrg.org/images/02286238203941626793.jpg 
http://desibbrg.org/images/62958214421527573379.jpg

Info - 
Genre - History
Director - Sanjiv Jaiswal
Starring - Habib Aazmi, Priya Annatram, Pravin Baby, Mahesh Balraj, Shabaj Baweja, Shaji Chaudhary, Sattyam Chaunhan, Sridhar Dubey, Sabri Khan, Anurag Mishra, Amit Panchanan, Ganesh Pandit, Ashok Pathak, Aaref Rajput, Gauri Shankar

Media Info - 
Complete name : Shudra The Rising (2012) DVD SCR MP4 {TEAM ICTV}.mp4
Format : MPEG-4
Format profile : Base Media / Version 2
Codec ID : mp42
File size : 363 MiB
Duration : 1h 39mn
Overall bit rate mode : Variable
Overall bit rate : 509 Kbps
Encoded date : UTC 2012-12-14 21:29:30
Tagged date : UTC 2012-12-14 21:29:30
gsst : 0
gstd : 5984826
gssd : BADC214A1HH1356074718486128
gshh :

Video
ID : 1
Format : AVC
Format/Info : Advanced Video Codec
Format profile : Baseline@L2.1
Format settings, CABAC : No
Format settings, ReFrames : 1 frame
Format settings, GOP : M=1, N=60
Codec ID : avc1
Codec ID/Info : Advanced Video Coding
Duration : 1h 39mn
Bit rate : 411 Kbps
Maximum bit rate : 1 703 Kbps
Width : 640 pixels
Height : 252 pixels
Display aspect ratio : 2.540
Frame rate mode : Constant
Frame rate : 25.000 fps
Color space : YUV
Chroma subsampling : 4:2:0
Bit depth : 8 bits
Scan type : Progressive
Bits/(Pixel*Frame) : 0.102
Stream size : 293 MiB (81%)
Tagged date : UTC 2012-12-14 21:29:34

Audio
ID : 2
Format : AAC
Format/Info : Advanced Audio Codec
Format profile : LC
Codec ID : 40
Duration : 1h 39mn
Bit rate mode : Variable
Bit rate : 96.0 Kbps
Maximum bit rate : 104 Kbps
Channel(s) : 2 channels
Channel positions : Front: L R
Sampling rate : 44.1 KHz
Compression mode : Lossy
Stream size : 68.5 MiB (19%)
Title : IsoMedia File Produced by Google, 5-11-2011
Encoded date : UTC 2012-12-14 21:29:33
Tagged date : UTC 2012-12-14 21:29:34

Ripper : lottery

Seeding 24x7... Extreme Seeding...


Enjoy!
